<svg fill="none" xmlns="http://www.w3.org/2000/svg" viewBox="0 0 25 24"><g clip-path="url(#a)"><path d="M15.49 15.66c0 .34.28.62.62.62h.05c.34 0 .62-.28.62-.62V8.34a.63.63 0 0 0-.62-.63h-.05a.63.63 0 0 0-.62.63v7.32Zm-2.24.62c.35 0 .63-.28.63-.62V10.7a2.9 2.9 0 0 0-2.83-2.96 2.9 2.9 0 0 0-2.84 2.96v4.95c0 .34.29.62.63.62h.05c.34 0 .62-.28.62-.62v-.9c0-.23.2-.41.42-.41h2.23c.23 0 .42.18.42.41v.9c0 .34.28.62.62.62h.05Zm-.67-5.57v1.87c0 .23-.19.42-.42.42H9.93a.42.42 0 0 1-.42-.42V10.7c0-.9.7-1.6 1.54-1.6.84 0 1.53.7 1.53 1.6Z" fill="#0D5BCF" stroke="#0D5BCF" stroke-width=".21"/><path d="M23.3 11.2h-1.43a9.42 9.42 0 0 0-8.58-8.57V1.19a.8.8 0 0 0-1.6 0v1.44a9.42 9.42 0 0 0-8.57 8.58H1.69a.8.8 0 0 0 0 1.58h1.43a9.42 9.42 0 0 0 8.58 8.58v1.44a.8.8 0 1 0 1.59 0v-1.44a9.42 9.42 0 0 0 8.58-8.58h1.44a.8.8 0 1 0 0-1.58Zm-10.8 8.63a7.83 7.83 0 1 1 0-15.66 7.83 7.83 0 0 1 0 15.66Z" fill="#C3D6F3" stroke="#C3D6F3" stroke-width=".21"/><path d="m6.75 5.73 11.5 12.54" stroke="#C3D6F3" stroke-width="1.57" stroke-linecap="round" stroke-linejoin="round"/></g><defs><clipPath id="a"><path fill="#fff" d="M.5 0h24v24H.5z"/></clipPath></defs></svg>