<svg xmlns="http://www.w3.org/2000/svg" xmlns:xlink="http://www.w3.org/1999/xlink" width="1366" height="536" viewBox="0 0 1366 536">
  <defs>
    <clipPath id="clip-path">
      <rect id="Rectangle_3779" data-name="Rectangle 3779" width="1366" height="536" transform="translate(-15942.227 -13103)" fill="#afafaf"/>
    </clipPath>
  </defs>
  <g id="Mask_Group_541" data-name="Mask Group 541" transform="translate(15942.227 13103)" clip-path="url(#clip-path)">
    <g id="Group_6873" data-name="Group 6873" transform="translate(-16036.613 -13190.66)">
      <path id="Path_19341" data-name="Path 19341" d="M1230.2,3187.954s-19.021-135.133-189.016-147.444S764.2,3009.735,761.824,2896.892,677.06,2565,429.549,2565" transform="translate(140.211 -2565)" fill="none" stroke="#c8c8c8" stroke-width="2" opacity="0.2"/>
      <path id="Path_19341-2" data-name="Path 19341" d="M1230.2,3187.954s-19.021-135.133-189.016-147.444S764.2,3009.735,761.824,2896.892,677.06,2565,429.549,2565" transform="translate(117.42 -2565)" fill="none" stroke="#c8c8c8" stroke-width="2" opacity="0.2"/>
      <path id="Path_19341-3" data-name="Path 19341" d="M1230.2,3187.954s-19.021-135.133-189.016-147.444S764.2,3009.735,761.824,2896.892,677.06,2565,429.549,2565" transform="translate(94.63 -2565)" fill="none" stroke="#c8c8c8" stroke-width="2" opacity="0.2"/>
      <path id="Path_19341-4" data-name="Path 19341" d="M1230.2,3187.954s-19.021-135.133-189.016-147.444S764.2,3009.735,761.824,2896.892,677.06,2565,429.549,2565" transform="translate(71.84 -2565)" fill="none" stroke="#c8c8c8" stroke-width="2" opacity="0.2"/>
      <path id="Path_19341-5" data-name="Path 19341" d="M1230.2,3187.954s-19.021-135.133-189.016-147.444S764.2,3009.735,761.824,2896.892,677.06,2565,429.549,2565" transform="translate(49.049 -2565)" fill="none" stroke="#c8c8c8" stroke-width="2" opacity="0.2"/>
      <path id="Path_19341-6" data-name="Path 19341" d="M1230.2,3187.954s-19.021-135.133-189.016-147.444S764.2,3009.735,761.824,2896.892,677.06,2565,429.549,2565" transform="translate(26.259 -2565)" fill="none" stroke="#c8c8c8" stroke-width="2" opacity="0.2"/>
      <path id="Path_19341-7" data-name="Path 19341" d="M1230.2,3187.954s-19.021-135.133-189.016-147.444S764.2,3009.735,761.824,2896.892,677.06,2565,429.549,2565" transform="translate(3.468 -2565)" fill="none" stroke="#c8c8c8" stroke-width="2" opacity="0.2"/>
      <path id="Path_19341-8" data-name="Path 19341" d="M1230.2,3187.954s-19.021-135.133-189.016-147.444S764.2,3009.735,761.824,2896.892,677.06,2565,429.549,2565" transform="translate(-19.322 -2565)" fill="none" stroke="#c8c8c8" stroke-width="2" opacity="0.2"/>
      <path id="Path_19341-9" data-name="Path 19341" d="M1230.2,3187.954s-19.021-135.133-189.016-147.444S764.2,3009.735,761.824,2896.892,677.06,2565,429.549,2565" transform="translate(-42.112 -2565)" fill="none" stroke="#c8c8c8" stroke-width="2" opacity="0.2"/>
      <path id="Path_19341-10" data-name="Path 19341" d="M1230.2,3187.954s-19.021-135.133-189.016-147.444S764.2,3009.735,761.824,2896.892,677.06,2565,429.549,2565" transform="translate(-64.903 -2565)" fill="none" stroke="#c8c8c8" stroke-width="2" opacity="0.2"/>
      <path id="Path_19341-11" data-name="Path 19341" d="M1230.2,3187.954s-19.021-135.133-189.016-147.444S764.2,3009.735,761.824,2896.892,677.06,2565,429.549,2565" transform="translate(-87.693 -2565)" fill="none" stroke="#c8c8c8" stroke-width="2" opacity="0.2"/>
      <path id="Path_19341-12" data-name="Path 19341" d="M1230.2,3187.954s-19.021-135.133-189.016-147.444S764.2,3009.735,761.824,2896.892,677.06,2565,429.549,2565" transform="translate(-110.483 -2565)" fill="none" stroke="#c8c8c8" stroke-width="2" opacity="0.2"/>
      <path id="Path_19341-13" data-name="Path 19341" d="M1230.2,3187.954s-19.021-135.133-189.016-147.444S764.2,3009.735,761.824,2896.892,677.06,2565,429.549,2565" transform="translate(-133.274 -2565)" fill="none" stroke="#c8c8c8" stroke-width="2" opacity="0.2"/>
      <path id="Path_19341-14" data-name="Path 19341" d="M1230.2,3187.954s-19.021-135.133-189.016-147.444S764.2,3009.735,761.824,2896.892,677.06,2565,429.549,2565" transform="translate(-156.064 -2565)" fill="none" stroke="#c8c8c8" stroke-width="2" opacity="0.2"/>
      <path id="Path_19341-15" data-name="Path 19341" d="M1230.2,3187.954s-19.021-135.133-189.016-147.444S764.2,3009.735,761.824,2896.892,677.06,2565,429.549,2565" transform="translate(-178.855 -2565)" fill="none" stroke="#c8c8c8" stroke-width="2" opacity="0.2"/>
      <path id="Path_19341-16" data-name="Path 19341" d="M1230.2,3187.954s-19.021-135.133-189.016-147.444S764.2,3009.735,761.824,2896.892,677.06,2565,429.549,2565" transform="translate(-201.645 -2565)" fill="none" stroke="#c8c8c8" stroke-width="2" opacity="0.2"/>
      <path id="Path_19341-17" data-name="Path 19341" d="M1230.2,3187.954s-19.021-135.133-189.016-147.444S764.2,3009.735,761.824,2896.892,677.06,2565,429.549,2565" transform="translate(-224.435 -2565)" fill="none" stroke="#c8c8c8" stroke-width="2" opacity="0.2"/>
      <path id="Path_19341-18" data-name="Path 19341" d="M1230.2,3187.954s-19.021-135.133-189.016-147.444S764.2,3009.735,761.824,2896.892,677.06,2565,429.549,2565" transform="translate(-247.226 -2565)" fill="none" stroke="#c8c8c8" stroke-width="2" opacity="0.2"/>
      <path id="Path_19341-19" data-name="Path 19341" d="M1230.2,3187.954s-19.021-135.133-189.016-147.444S764.2,3009.735,761.824,2896.892,677.06,2565,429.549,2565" transform="translate(-270.016 -2565)" fill="none" stroke="#c8c8c8" stroke-width="2" opacity="0.2"/>
      <path id="Path_19341-20" data-name="Path 19341" d="M1230.2,3187.954s-19.021-135.133-189.016-147.444S764.2,3009.735,761.824,2896.892,677.06,2565,429.549,2565" transform="translate(-292.806 -2565)" fill="none" stroke="#c8c8c8" stroke-width="2" opacity="0.2"/>
      <path id="Path_19341-21" data-name="Path 19341" d="M1230.2,3187.954s-19.021-135.133-189.016-147.444S764.2,3009.735,761.824,2896.892,677.06,2565,429.549,2565" transform="translate(-315.597 -2565)" fill="none" stroke="#c8c8c8" stroke-width="2" opacity="0.2"/>
      <path id="Path_19341-22" data-name="Path 19341" d="M1230.2,3187.954s-19.021-135.133-189.016-147.444S764.2,3009.735,761.824,2896.892,677.06,2565,429.549,2565" transform="translate(-338.387 -2565)" fill="none" stroke="#c8c8c8" stroke-width="2" opacity="0.2"/>
      <path id="Path_19341-23" data-name="Path 19341" d="M1230.2,3187.954s-19.021-135.133-189.016-147.444S764.2,3009.735,761.824,2896.892,677.06,2565,429.549,2565" transform="translate(-361.178 -2565)" fill="none" stroke="#c8c8c8" stroke-width="2" opacity="0.2"/>
      <path id="Path_19341-24" data-name="Path 19341" d="M1230.2,3187.954s-19.021-135.133-189.016-147.444S764.2,3009.735,761.824,2896.892,677.06,2565,429.549,2565" transform="translate(-383.968 -2565)" fill="none" stroke="#c8c8c8" stroke-width="2" opacity="0.2"/>
      <path id="Path_19341-25" data-name="Path 19341" d="M1230.2,3187.954s-19.021-135.133-189.016-147.444S764.2,3009.735,761.824,2896.892,677.06,2565,429.549,2565" transform="translate(-406.758 -2565)" fill="none" stroke="#c8c8c8" stroke-width="2" opacity="0.2"/>
      <path id="Path_19341-26" data-name="Path 19341" d="M1230.2,3187.954s-19.021-135.133-189.016-147.444S764.2,3009.735,761.824,2896.892,677.06,2565,429.549,2565" transform="translate(-429.549 -2565)" fill="none" stroke="#c8c8c8" stroke-width="2" opacity="0.2"/>
    </g>
  </g>
</svg>
