<svg width="25" height="24" fill="none" xmlns="http://www.w3.org/2000/svg"><path d="M19.25 8v2.1c-.44-.06-.94-.09-1.5-.1V8c0-3.15-.89-5.25-5.25-5.25S7.25 4.85 7.25 8v2c-.56.01-1.06.04-1.5.1V8c0-2.9.7-6.75 6.75-6.75S19.25 5.1 19.25 8Z" fill="#0D5BCF"/><path d="M22.5 15v2c0 4-1 5-5 5h-10c-4 0-5-1-5-5v-2c0-3.34.7-4.59 3.25-4.9.44-.06.94-.09 1.5-.1h10.5c.56.01 1.06.04 1.5.1 2.55.31 3.25 1.56 3.25 4.9Z" fill="#C3D6F3"/><path d="M8.5 17c-.13 0-.26-.03-.38-.08-.13-.05-.23-.12-.33-.21-.18-.19-.29-.45-.29-.71 0-.13.03-.26.08-.38s.12-.23.21-.33c.1-.09.2-.16.33-.21.37-.16.81-.07 1.09.21.09.1.16.21.21.33.05.12.08.25.08.38 0 .26-.11.52-.29.71-.19.18-.45.29-.71.29ZM12.5 17c-.27 0-.52-.11-.71-.29-.09-.1-.16-.21-.21-.33a.995.995 0 0 1-.08-.38c0-.27.11-.52.29-.71.37-.37 1.04-.37 1.42 0 .18.19.29.44.29.71 0 .13-.03.26-.08.38s-.12.23-.21.33c-.19.18-.45.29-.71.29ZM16.5 17c-.26 0-.52-.11-.71-.29-.18-.19-.29-.44-.29-.71 0-.27.11-.52.29-.71.38-.37 1.05-.37 1.42 0 .04.05.08.1.12.16.04.05.07.11.09.17.03.06.05.12.06.18.01.07.02.14.02.2 0 .26-.11.52-.29.71-.19.18-.45.29-.71.29Z" fill="#0D5BCF"/></svg>