<svg width="25" height="24" fill="none" xmlns="http://www.w3.org/2000/svg"><path d="M2.5 12.97V6.99C2.5 4.23 4.74 2 7.5 2h10c2.76 0 5 2.23 5 4.99v6.98c0 2.75-2.24 4.98-5 4.98H16c-.31 0-.61.15-.8.4l-1.5 1.99c-.66.88-1.74.88-2.4 0l-1.5-1.99c-.16-.22-.52-.4-.8-.4H7.5c-2.76 0-5-2.23-5-4.98v-1Z" fill="#C3D6F3"/><path d="M17.5 8.75h-10c-.41 0-.75-.34-.75-.75s.34-.75.75-.75h10c.41 0 .75.34.75.75s-.34.75-.75.75ZM13.5 13.75h-6c-.41 0-.75-.34-.75-.75s.34-.75.75-.75h6c.41 0 .75.34.75.75s-.34.75-.75.75Z" fill="#0D5BCF"/></svg>